<?xml version="1.0"?>
<!DOCTYPE svg PUBLIC "-//W3C//DTD SVG 1.1//EN" "http://www.w3.org/Graphics/SVG/1.1/DTD/svg11.dtd">
<svg xmlns="http://www.w3.org/2000/svg" xmlns:xl="http://www.w3.org/1999/xlink" version="1.1" viewBox="68 187 141 104" width="141pt" height="104pt"><metadata xmlns:dc="http://purl.org/dc/elements/1.1/"><dc:date>2010-04-30 19:23Z</dc:date><!-- Produced by OmniGraffle Professional 5.2.2 --></metadata><defs></defs><g stroke="none" stroke-opacity="1" stroke-dasharray="none" fill="none" fill-opacity="1"><title>Canvas 11</title><g><title>Layer 2</title><circle cx="138.68187" cy="238.7334" r="48.533577" fill="#8ad438"/><circle cx="138.68187" cy="238.7334" r="48.533577" stroke="white" stroke-linecap="round" stroke-linejoin="round" stroke-width="3"/><path d="M 118.56993 211.6987 L 186.55971 193.48091 C 193.32153 191.66908 200.27184 195.68185 202.08366 202.44368 L 202.08366 202.44368 C 203.89549 209.2055 199.88272 216.15581 193.1209 217.96764 C 193.1209 217.96764 193.1209 217.96764 193.1209 217.96764 L 125.13112 236.18541 C 118.3693 237.99724 111.41899 233.98447 109.60717 227.22264 L 109.60717 227.22264 C 107.79535 220.46083 111.80811 213.51053 118.56993 211.6987 C 118.56993 211.6987 118.56993 211.69868 118.56993 211.69868 Z" fill="#78a8df"/><path d="M 118.56993 211.6987 L 186.55971 193.48091 C 193.32153 191.66908 200.27184 195.68185 202.08366 202.44368 L 202.08366 202.44368 C 203.89549 209.2055 199.88272 216.15581 193.1209 217.96764 C 193.1209 217.96764 193.1209 217.96764 193.1209 217.96764 L 125.13112 236.18541 C 118.3693 237.99724 111.41899 233.98447 109.60717 227.22264 L 109.60717 227.22264 C 107.79535 220.46083 111.80811 213.51053 118.56993 211.6987 C 118.56993 211.6987 118.56993 211.69868 118.56993 211.69868 Z" stroke="white" stroke-linecap="round" stroke-linejoin="round" stroke-width="3"/><path d="M 84.243324 260.23273 L 152.23312 242.01491 C 158.99493 240.20308 165.94524 244.21585 167.75706 250.97766 L 167.75706 250.97766 C 169.56889 257.73947 165.55612 264.68976 158.79431 266.50159 C 158.79431 266.50159 158.79431 266.50162 158.79431 266.50162 L 90.80451 284.71942 C 84.0427 286.53125 77.09239 282.51846 75.28057 275.75665 C 75.28057 275.75665 75.28057 275.75665 75.28057 275.75665 L 75.28057 275.75665 C 73.46875 268.99484 77.481514 262.04453 84.243324 260.2327 C 84.243324 260.2327 84.243324 260.2327 84.243324 260.2327 Z" fill="#78a8df"/><path d="M 84.243324 260.23273 L 152.23312 242.01491 C 158.99493 240.20308 165.94524 244.21585 167.75706 250.97766 L 167.75706 250.97766 C 169.56889 257.73947 165.55612 264.68976 158.79431 266.50159 C 158.79431 266.50159 158.79431 266.50162 158.79431 266.50162 L 90.80451 284.71942 C 84.0427 286.53125 77.09239 282.51846 75.28057 275.75665 C 75.28057 275.75665 75.28057 275.75665 75.28057 275.75665 L 75.28057 275.75665 C 73.46875 268.99484 77.481514 262.04453 84.243324 260.2327 C 84.243324 260.2327 84.243324 260.2327 84.243324 260.2327 Z" stroke="white" stroke-linecap="round" stroke-linejoin="round" stroke-width="3"/></g></g></svg>
