<?xml version="1.0"?>
<!DOCTYPE svg PUBLIC "-//W3C//DTD SVG 1.1//EN" "http://www.w3.org/Graphics/SVG/1.1/DTD/svg11.dtd">
<svg xmlns="http://www.w3.org/2000/svg" xmlns:xl="http://www.w3.org/1999/xlink" version="1.1" viewBox="92 208 140 105" width="140pt" height="105pt"><metadata xmlns:dc="http://purl.org/dc/elements/1.1/"><dc:date>2010-05-20 23:03Z</dc:date><!-- Produced by OmniGraffle Professional 5.2.2 --></metadata><defs></defs><g stroke="none" stroke-opacity="1" stroke-dasharray="none" fill="none" fill-opacity="1"><title>Logos</title><g><title>Logos</title><circle cx="161.99951" cy="260.43051" r="48.533588" fill="#719f1b"/><circle cx="161.99951" cy="260.43051" r="48.533588" stroke="white" stroke-linecap="round" stroke-linejoin="round" stroke-width="3"/><path d="M 141.88788 233.39578 L 209.87766 215.17801 C 216.63947 213.36618 223.58977 217.37895 225.4016 224.14076 L 225.4016 224.14076 C 227.21342 230.90259 223.20065 237.85289 216.43883 239.66472 C 216.43883 239.66472 216.43883 239.66472 216.43883 239.66472 L 148.44907 257.88248 C 141.68726 259.6943 134.73695 255.68153 132.925125 248.91972 L 132.925125 248.91972 C 131.1133 242.1579 135.12607 235.2076 141.88789 233.39577 C 141.88789 233.39577 141.88789 233.39577 141.88789 233.39577 Z" fill="#3172cd"/><path d="M 141.88788 233.39578 L 209.87766 215.17801 C 216.63947 213.36618 223.58977 217.37895 225.4016 224.14076 L 225.4016 224.14076 C 227.21342 230.90259 223.20065 237.85289 216.43883 239.66472 C 216.43883 239.66472 216.43883 239.66472 216.43883 239.66472 L 148.44907 257.88248 C 141.68726 259.6943 134.73695 255.68153 132.925125 248.91972 L 132.925125 248.91972 C 131.1133 242.1579 135.12607 235.2076 141.88789 233.39577 C 141.88789 233.39577 141.88789 233.39577 141.88789 233.39577 Z" stroke="white" stroke-linecap="round" stroke-linejoin="round" stroke-width="3"/><path d="M 107.561165 281.92984 L 175.55096 263.71204 C 182.31277 261.9002 189.26308 265.913 191.0749 272.6748 L 191.0749 272.67477 C 192.88673 279.43658 188.87396 286.38687 182.11215 288.1987 C 182.11215 288.1987 182.11215 288.1987 182.11215 288.1987 L 114.12235 306.4165 C 107.36054 308.22833 100.41023 304.21555 98.59841 297.45374 C 98.59841 297.45374 98.59841 297.45374 98.59841 297.45374 L 98.59842 297.45377 C 96.78659 290.69196 100.799355 283.74164 107.561165 281.92981 C 107.561165 281.92981 107.56117 281.92981 107.56117 281.92981 Z" fill="#3172cd"/><path d="M 107.561165 281.92984 L 175.55096 263.71204 C 182.31277 261.9002 189.26308 265.913 191.0749 272.6748 L 191.0749 272.67477 C 192.88673 279.43658 188.87396 286.38687 182.11215 288.1987 C 182.11215 288.1987 182.11215 288.1987 182.11215 288.1987 L 114.12235 306.4165 C 107.36054 308.22833 100.41023 304.21555 98.59841 297.45374 C 98.59841 297.45374 98.59841 297.45374 98.59841 297.45374 L 98.59842 297.45377 C 96.78659 290.69196 100.799355 283.74164 107.561165 281.92981 C 107.561165 281.92981 107.56117 281.92981 107.56117 281.92981 Z" stroke="white" stroke-linecap="round" stroke-linejoin="round" stroke-width="3"/></g></g></svg>
