<?xml version="1.0"?>
<!DOCTYPE svg PUBLIC "-//W3C//DTD SVG 1.1//EN" "http://www.w3.org/Graphics/SVG/1.1/DTD/svg11.dtd">
<svg xmlns="http://www.w3.org/2000/svg" xmlns:xl="http://www.w3.org/1999/xlink" version="1.1" viewBox="70 286 148 148" width="148pt" height="148pt"><metadata xmlns:dc="http://purl.org/dc/elements/1.1/"><dc:date>2010-04-30 19:23Z</dc:date><!-- Produced by OmniGraffle Professional 5.2.2 --></metadata><defs></defs><g stroke="none" stroke-opacity="1" stroke-dasharray="none" fill="none" fill-opacity="1"><title>Canvas 11</title><g><title>Layer 2</title><rect x="72" y="288" width="144" height="144" fill="white" fill-opacity="0"/><rect x="72" y="288" width="144" height="144" stroke="#912f97" stroke-opacity="0" stroke-linecap="round" stroke-linejoin="miter" stroke-width=".5"/><circle cx="143.99986" cy="359.63367" r="48.533596" fill="#8ad438"/><circle cx="143.99986" cy="359.63367" r="48.533596" stroke="white" stroke-linecap="round" stroke-linejoin="round" stroke-width="3"/><path d="M 123.887726 332.59906 L 191.8775 314.38129 C 198.63931 312.56946 205.58961 316.58221 207.40144 323.34402 C 207.40144 323.34402 207.40144 323.34406 207.40144 323.34406 L 207.40144 323.34402 C 209.21327 330.10583 205.2005 337.05615 198.43869 338.86798 C 198.43869 338.86798 198.43869 338.86798 198.43869 338.86798 L 130.44891 357.08575 C 123.6871 358.89758 116.736794 354.8848 114.92497 348.12299 C 114.92497 348.12299 114.92497 348.12299 114.92497 348.12299 L 114.92498 348.12302 C 113.11315 341.3612 117.125916 334.41089 123.887726 332.59906 C 123.887726 332.59906 123.88773 332.59906 123.88773 332.59906 Z" fill="#78a8df"/><path d="M 123.887726 332.59906 L 191.8775 314.38129 C 198.63931 312.56946 205.58961 316.58221 207.40144 323.34402 C 207.40144 323.34402 207.40144 323.34406 207.40144 323.34406 L 207.40144 323.34402 C 209.21327 330.10583 205.2005 337.05615 198.43869 338.86798 C 198.43869 338.86798 198.43869 338.86798 198.43869 338.86798 L 130.44891 357.08575 C 123.6871 358.89758 116.736794 354.8848 114.92497 348.12299 C 114.92497 348.12299 114.92497 348.12299 114.92497 348.12299 L 114.92498 348.12302 C 113.11315 341.3612 117.125916 334.41089 123.887726 332.59906 C 123.887726 332.59906 123.88773 332.59906 123.88773 332.59906 Z" stroke="white" stroke-linecap="round" stroke-linejoin="round" stroke-width="3"/><path d="M 89.561295 381.13254 L 157.55107 362.91476 C 164.31288 361.10294 171.26318 365.1157 173.07501 371.8775 C 173.07501 371.8775 173.07501 371.87753 173.07501 371.87753 L 173.07501 371.87747 C 174.88684 378.63928 170.87407 385.5896 164.11226 387.40143 C 164.11226 387.40143 164.11226 387.40143 164.11226 387.40143 L 96.12248 405.61923 C 89.36067 407.43106 82.41036 403.41827 80.59854 396.65646 C 80.59854 396.65646 80.59854 396.65646 80.59854 396.65646 L 80.59855 396.6565 C 78.78672 389.89468 82.799484 382.94437 89.561295 381.13254 C 89.561295 381.13254 89.5613 381.13254 89.5613 381.13254 Z" fill="#78a8df"/><path d="M 89.561295 381.13254 L 157.55107 362.91476 C 164.31288 361.10294 171.26318 365.1157 173.07501 371.8775 C 173.07501 371.8775 173.07501 371.87753 173.07501 371.87753 L 173.07501 371.87747 C 174.88684 378.63928 170.87407 385.5896 164.11226 387.40143 C 164.11226 387.40143 164.11226 387.40143 164.11226 387.40143 L 96.12248 405.61923 C 89.36067 407.43106 82.41036 403.41827 80.59854 396.65646 C 80.59854 396.65646 80.59854 396.65646 80.59854 396.65646 L 80.59855 396.6565 C 78.78672 389.89468 82.799484 382.94437 89.561295 381.13254 C 89.561295 381.13254 89.5613 381.13254 89.5613 381.13254 Z" stroke="white" stroke-linecap="round" stroke-linejoin="round" stroke-width="3"/></g></g></svg>
