<?xml version="1.0"?>
<!DOCTYPE svg PUBLIC "-//W3C//DTD SVG 1.1//EN" "http://www.w3.org/Graphics/SVG/1.1/DTD/svg11.dtd">
<svg xmlns="http://www.w3.org/2000/svg" xmlns:xl="http://www.w3.org/1999/xlink" version="1.1" viewBox="231 186 150 149" width="150pt" height="149pt"><metadata xmlns:dc="http://purl.org/dc/elements/1.1/"><dc:date>2010-05-26 16:20Z</dc:date><!-- Produced by OmniGraffle Professional 5.2.2 --></metadata><defs></defs><g stroke="none" stroke-opacity="1" stroke-dasharray="none" fill="none" fill-opacity="1"><title>Logos</title><g><title>Logos</title><rect x="234" y="188.79706" width="144" height="144" fill="white" fill-opacity="0"/><rect x="234" y="188.79706" width="144" height="144" stroke="#912f97" stroke-opacity="0" stroke-linecap="round" stroke-linejoin="miter" stroke-width=".5"/><circle cx="305.99948" cy="260.40125" r="52.404068" fill="#719f1b"/><circle cx="305.99948" cy="260.40125" r="52.404068" stroke="white" stroke-linecap="round" stroke-linejoin="round" stroke-width="3"/><path d="M 284.28397 231.2106 L 357.69583 211.53995 C 364.99689 209.58363 372.50146 213.91641 374.4578 221.21748 L 374.4578 221.21748 C 376.41412 228.51855 372.0813 236.02313 364.78024 237.97945 C 364.78024 237.97945 364.78024 237.97945 364.78024 237.97945 L 291.36838 257.65012 C 284.06732 259.60641 276.56274 255.27365 274.60641 247.97258 L 274.60641 247.97256 C 272.65012 240.67151 276.98291 233.16693 284.28397 231.21062 Z" fill="#3172cd"/><path d="M 284.28397 231.2106 L 357.69583 211.53995 C 364.99689 209.58363 372.50146 213.91641 374.4578 221.21748 L 374.4578 221.21748 C 376.41412 228.51855 372.0813 236.02313 364.78024 237.97945 C 364.78024 237.97945 364.78024 237.97945 364.78024 237.97945 L 291.36838 257.65012 C 284.06732 259.60641 276.56274 255.27365 274.60641 247.97258 L 274.60641 247.97256 C 272.65012 240.67151 276.98291 233.16693 284.28397 231.21062 Z" stroke="white" stroke-linecap="round" stroke-linejoin="round" stroke-width="3"/><path d="M 247.21979 283.61511 L 320.63162 263.94449 C 327.93268 261.98819 335.43726 266.32095 337.39359 273.62201 L 337.39362 273.62204 C 339.34995 280.9231 335.01712 288.42767 327.71606 290.384 C 327.71606 290.384 327.71606 290.384 327.71606 290.384 L 254.30421 310.05463 C 247.00314 312.01093 239.49855 307.67813 237.54224 300.37708 C 237.54224 300.37708 237.54224 300.37708 237.54224 300.37708 L 237.54222 300.37708 C 235.58592 293.07602 239.9187 285.57141 247.21977 283.61511 Z" fill="#3172cd"/><path d="M 247.21979 283.61511 L 320.63162 263.94449 C 327.93268 261.98819 335.43726 266.32095 337.39359 273.62201 L 337.39362 273.62204 C 339.34995 280.9231 335.01712 288.42767 327.71606 290.384 C 327.71606 290.384 327.71606 290.384 327.71606 290.384 L 254.30421 310.05463 C 247.00314 312.01093 239.49855 307.67813 237.54224 300.37708 C 237.54224 300.37708 237.54224 300.37708 237.54224 300.37708 L 237.54222 300.37708 C 235.58592 293.07602 239.9187 285.57141 247.21977 283.61511 Z" stroke="white" stroke-linecap="round" stroke-linejoin="round" stroke-width="3"/></g></g></svg>
